<svg width="530" height="404" viewBox="0 0 530 404" fill="none" xmlns="http://www.w3.org/2000/svg">
<mask id="mask0_19015_1625" style="mask-type:alpha" maskUnits="userSpaceOnUse" x="4" y="0" width="522" height="396">
<path d="M476.7 11.1999C363.447 -38.8117 318.05 108.31 241.592 134.529C165.5 171.844 90.1101 132.967 45.1911 169.489C-26.0102 227.38 8.53102 324.015 56.182 363.709C124.516 420.632 242.56 395.982 363.447 328.749C514.903 244.514 576.004 55.0515 476.7 11.1999Z" fill="#98C3E8"/>
</mask>
<g mask="url(#mask0_19015_1625)">
<rect x="-80.8521" y="-64.1637" width="648.685" height="549.044" fill="url(#paint0_linear_19015_1625)"/>
<path d="M0.996128 110.717C60.4759 140.711 127.073 224.667 127.073 264.754C127.073 314.067 22.5173 389.645 -25.4393 432.518L383.802 458.953C369.229 393.712 332.433 248.672 354.825 216.459C383.802 174.772 501.067 184.94 566.817 192.565L584.61 7.0087C552.582 20.3959 480.901 58.8629 441.757 48.6954C405.523 39.284 336.015 -1.29474 306.529 -27.0524" stroke="white" stroke-opacity="0.2" stroke-width="15"/>
<path d="M154.017 64.9634C170.285 149.692 214.514 305.018 261.284 248.486C319.747 177.822 366.009 86.3151 409.729 146.812C444.705 195.209 496.153 290.682 517.505 332.368" stroke="white" stroke-opacity="0.2" stroke-width="15"/>
<path fill-rule="evenodd" clip-rule="evenodd" d="M337.352 114.369C337.352 117.928 334.466 120.814 330.906 120.814C327.347 120.814 324.461 117.928 324.461 114.369C324.461 110.809 327.347 107.923 330.906 107.923C334.466 107.923 337.352 110.809 337.352 114.369ZM70.6786 253.748C74.2382 253.748 77.1238 250.862 77.1238 247.302C77.1238 243.743 74.2382 240.857 70.6786 240.857C67.1189 240.857 64.2333 243.743 64.2333 247.302C64.2333 250.862 67.1189 253.748 70.6786 253.748ZM210.863 335.925C214.423 335.925 217.308 333.039 217.308 329.48C217.308 325.92 214.423 323.034 210.863 323.034C207.304 323.034 204.418 325.92 204.418 329.48C204.418 333.039 207.304 335.925 210.863 335.925ZM431.614 240.857C435.173 240.857 438.059 237.972 438.059 234.412C438.059 230.852 435.173 227.967 431.614 227.967C428.054 227.967 425.168 230.852 425.168 234.412C425.168 237.972 428.054 240.857 431.614 240.857Z" fill="white" fill-opacity="0.6"/>
<circle cx="46.5088" cy="317.395" r="13.7245" stroke="white" stroke-opacity="0.4" stroke-width="8"/>
<circle cx="513.791" cy="94.2272" r="13.7245" stroke="white" stroke-opacity="0.4" stroke-width="8"/>
<circle cx="312.376" cy="281.946" r="13.7245" stroke="white" stroke-opacity="0.4" stroke-width="8"/>
</g>
<defs>
<linearGradient id="paint0_linear_19015_1625" x1="290.314" y1="-100.999" x2="259.841" y2="439.458" gradientUnits="userSpaceOnUse">
<stop stop-color="#D1ECFF"/>
<stop offset="1" stop-color="#1070B1"/>
</linearGradient>
</defs>
</svg>
